HIERARCHY
ROOT Hips
{
	OFFSET 0.000000 1.471914 24.280096
	CHANNELS 6 Xposition Yposition Zposition Xrotation Yrotation Zrotation
	JOINT Spine
	{
		OFFSET 0.000000 0.900110 1.860670
		CHANNELS 6 Xposition Yposition Zposition Xrotation Yrotation Zrotation
		JOINT Spine1
		{
			OFFSET 0.000000 0.400320 2.270309
			CHANNELS 6 Xposition Yposition Zposition Xrotation Yrotation Zrotation
			JOINT Spine2
			{
				OFFSET 0.000000 0.200920 2.296560
				CHANNELS 6 Xposition Yposition Zposition Xrotation Yrotation Zrotation
				JOINT Spine3
				{
					OFFSET 0.000000 0.000000 2.305330
					CHANNELS 6 Xposition Yposition Zposition Xrotation Yrotation Zrotation
					JOINT Neck
					{
						OFFSET 0.000000 -0.864490 6.051487
						CHANNELS 6 Xposition Yposition Zposition Xrotation Yrotation Zrotation
						JOINT Head
						{
							OFFSET 0.000000 -0.550429 3.121674
							CHANNELS 6 Xposition Yposition Zposition Xrotation Yrotation Zrotation
							End Site
							{
								OFFSET 0.000000 0.000000 3.731750
							}
						}
					}
					JOINT RightShoulder
					{
						OFFSET -0.788280 -1.313800 4.256718
						CHANNELS 6 Xposition Yposition Zposition Xrotation Yrotation Zrotation
						JOINT RightArm
						{
							OFFSET -3.915130 0.000000 0.000000
							CHANNELS 6 Xposition Yposition Zposition Xrotation Yrotation Zrotation
							JOINT RightForeArm
							{
								OFFSET -6.914910 0.000000 0.000000
								CHANNELS 6 Xposition Yposition Zposition Xrotation Yrotation Zrotation
								JOINT RightHand
								{
									OFFSET -6.096219 0.000000 0.000000
									CHANNELS 6 Xposition Yposition Zposition Xrotation Yrotation Zrotation
									JOINT RightHandEnd
									{
										OFFSET -1.749950 0.000000 0.000000
										CHANNELS 6 Xposition Yposition Zposition Xrotation Yrotation Zrotation
										End Site
										{
											OFFSET -1.749950 0.000000 0.000000
										}
									}
									JOINT RightHandThumb1
									{
										OFFSET -0.699980 -1.166630 -0.466648
										CHANNELS 6 Xposition Yposition Zposition Xrotation Yrotation Zrotation
										End Site
										{
											OFFSET -1.690319 -0.452920 0.000000
										}
									}
								}
							}
						}
					}
					JOINT LeftShoulder
					{
						OFFSET 0.788280 -1.313800 4.256718
						CHANNELS 6 Xposition Yposition Zposition Xrotation Yrotation Zrotation
						JOINT LeftArm
						{
							OFFSET 3.915130 0.000000 0.000000
							CHANNELS 6 Xposition Yposition Zposition Xrotation Yrotation Zrotation
							JOINT LeftForeArm
							{
								OFFSET 6.914910 0.000000 0.000000
								CHANNELS 6 Xposition Yposition Zposition Xrotation Yrotation Zrotation
								JOINT LeftHand
								{
									OFFSET 6.096219 0.000000 0.000000
									CHANNELS 6 Xposition Yposition Zposition Xrotation Yrotation Zrotation
									JOINT LeftHandEnd
									{
										OFFSET 1.749950 0.000000 0.000000
										CHANNELS 6 Xposition Yposition Zposition Xrotation Yrotation Zrotation
										End Site
										{
											OFFSET 1.749950 0.000000 0.000000
										}
									}
									JOINT LeftHandThumb1
									{
										OFFSET 0.699980 -1.166630 -0.466648
										CHANNELS 6 Xposition Yposition Zposition Xrotation Yrotation Zrotation
										End Site
										{
											OFFSET 1.690319 -0.452920 0.000000
										}
									}
								}
							}
						}
					}
				}
			}
		}
	}
	JOINT RightUpLeg
	{
		OFFSET -2.338570 -0.252550 -0.551512
		CHANNELS 6 Xposition Yposition Zposition Xrotation Yrotation Zrotation
		JOINT RightLeg
		{
			OFFSET 0.000000 0.000000 -10.744959
			CHANNELS 6 Xposition Yposition Zposition Xrotation Yrotation Zrotation
			JOINT RightFoot
			{
				OFFSET 0.000000 -0.000001 -10.930849
				CHANNELS 6 Xposition Yposition Zposition Xrotation Yrotation Zrotation
				JOINT RightToeBase
				{
					OFFSET 0.000000 -4.087269 -1.487650
					CHANNELS 6 Xposition Yposition Zposition Xrotation Yrotation Zrotation
					End Site
					{
						OFFSET 0.000000 -1.891870 0.000000
					}
				}
			}
		}
	}
	JOINT LeftUpLeg
	{
		OFFSET 2.338570 -0.252550 -0.551512
		CHANNELS 6 Xposition Yposition Zposition Xrotation Yrotation Zrotation
		JOINT LeftLeg
		{
			OFFSET 0.000000 0.000000 -10.744959
			CHANNELS 6 Xposition Yposition Zposition Xrotation Yrotation Zrotation
			JOINT LeftFoot
			{
				OFFSET 0.000000 -0.000001 -10.930849
				CHANNELS 6 Xposition Yposition Zposition Xrotation Yrotation Zrotation
				JOINT LeftToeBase
				{
					OFFSET 0.000000 -4.087269 -1.487650
					CHANNELS 6 Xposition Yposition Zposition Xrotation Yrotation Zrotation
					End Site
					{
						OFFSET 0.000000 -1.891870 0.000000
					}
				}
			}
		}
	}
}
MOTION
Frames: 4
Frame Time: 0.041667
-0.000009 26.544876 40.017399 -16.138069 5.771427 -11.174319 -0.000022 0.900099 1.860702 31.048466 -5.610425 -1.131141 0.000011 0.400277 2.270331 -0.000004 -0.000001 0.000005 0.000013 0.200880 2.296524 0.000001 -0.000000 0.000002 0.000029 0.000000 2.305341 -0.000037 0.000003 -1.709548 -0.000014 -0.864467 6.051454 0.210314 -3.047360 -179.049912 0.000017 -0.550438 3.121704 -0.000003 0.000000 -0.000002 -0.788271 -1.313735 4.256790 -129.263297 36.931635 -61.360077 -3.915103 -0.000008 -0.000034 -0.000002 -0.000000 -0.000001 -6.914912 0.000000 0.000003 0.000001 -0.000001 -75.290391 -6.096189 -0.000003 0.000012 -0.000093 -0.000058 -0.000088 -1.749910 -0.000028 0.000023 0.000005 0.000003 0.000002 -0.699967 -1.166631 -0.466656 -0.000004 -0.000004 -0.000000 0.788260 -1.313775 4.256739 -126.778543 -30.756403 60.872333 3.915171 0.000012 -0.000034 -0.000003 -0.000001 0.000006 6.914928 -0.000034 -0.000003 0.000010 0.000002 78.852820 6.096218 0.000075 -0.000016 -0.000013 0.000046 0.000019 1.749982 -0.000013 0.000023 -0.000005 -0.000001 -0.000007 0.699962 -1.166617 -0.466629 0.000007 -0.000002 -0.000023 -2.338568 -0.252537 -0.551478 25.420156 -4.373726 -0.936295 0.000016 -0.000025 -10.744963 7.083301 4.294624 -0.778966 -0.000019 0.000078 -10.930833 -0.000024 -0.000001 0.000000 0.000002 -4.087267 -1.487640 0.000004 0.000001 -0.000003 2.338574 -0.252546 -0.551461 23.915480 -9.298799 -0.901502 -0.000003 -0.000045 -10.744905 9.738561 0.251487 -1.933742 -0.000012 0.000013 -10.930875 0.000012 -0.000005 0.000001 -0.000014 -4.087245 -1.487654 -0.000003 0.000000 -0.000004 
-0.000014 26.544893 40.017422 -15.759268 5.722125 -11.772225 -0.000022 0.900100 1.860694 31.718719 -5.727685 -1.261633 0.000010 0.400282 2.270325 -0.000003 -0.000001 0.000008 0.000012 0.200874 2.296520 0.000001 -0.000000 0.000002 0.000029 0.000006 2.305334 -0.000035 0.000003 -1.437298 -0.000013 -0.864468 6.051453 -0.772595 -2.239417 -179.973982 0.000016 -0.550434 3.121704 -0.000002 0.000000 -0.000007 -0.788272 -1.313736 4.256786 -128.782752 37.201821 -61.868755 -3.915113 -0.000007 -0.000038 -0.000002 0.000001 -0.000000 -6.914913 -0.000005 0.000005 0.000007 0.000013 -64.950625 -6.096186 0.000000 0.000012 -0.000095 -0.000065 -0.000095 -1.749905 -0.000029 0.000030 -0.000002 -0.000000 0.000000 -0.699958 -1.166627 -0.466649 -0.000006 -0.000005 -0.000003 0.788262 -1.313775 4.256732 -126.255036 -30.500503 60.665952 3.915173 0.000014 -0.000038 0.000000 -0.000002 0.000005 6.914929 -0.000034 -0.000008 0.000020 -0.000014 68.983668 6.096218 0.000074 -0.000015 -0.000013 0.000052 0.000021 1.749973 -0.000009 0.000032 -0.000005 0.000000 -0.000006 0.699958 -1.166616 -0.466632 0.000012 -0.000008 -0.000023 -2.338568 -0.252539 -0.551478 24.782978 -4.388770 -1.000277 0.000015 -0.000019 -10.744965 7.839740 4.425079 -0.890118 -0.000019 0.000079 -10.930835 -0.000020 -0.000001 0.000000 0.000003 -4.087271 -1.487637 0.000002 0.000001 -0.000002 2.338574 -0.252545 -0.551470 23.120551 -9.016009 -0.954456 -0.000003 -0.000045 -10.744908 10.208954 -0.453652 -2.015640 -0.000013 0.000010 -10.930877 0.000014 -0.000003 0.000004 -0.000015 -4.087240 -1.487650 -0.000003 0.000001 -0.000000 
-0.000019 26.544893 40.017426 -15.558058 5.659488 -12.037898 -0.000021 0.900098 1.860694 32.280464 -5.627237 -1.353010 0.000009 0.400280 2.270329 -0.000002 -0.000001 0.000008 0.000012 0.200873 2.296524 0.000000 -0.000000 0.000000 0.000028 0.000003 2.305330 -0.000039 0.000003 -1.247691 -0.000014 -0.864469 6.051451 -1.509663 -2.057252 -180.197862 0.000016 -0.550434 3.121700 -0.000003 0.000001 -0.000006 -0.788272 -1.313733 4.256788 -127.354136 37.053411 -63.278110 -3.915110 -0.000005 -0.000031 -0.000001 -0.000000 0.000001 -6.914908 -0.000001 0.000002 0.000014 0.000036 -52.123626 -6.096193 0.000002 0.000012 -0.000097 -0.000057 -0.000090 -1.749900 -0.000031 0.000027 0.000002 0.000003 -0.000002 -0.699958 -1.166633 -0.466656 -0.000006 -0.000005 -0.000002 0.788260 -1.313775 4.256736 -125.683417 -31.487025 60.881069 3.915174 0.000013 -0.000034 -0.000000 -0.000001 0.000004 6.914931 -0.000030 -0.000001 0.000027 -0.000035 57.686057 6.096225 0.000073 -0.000020 -0.000011 0.000045 0.000019 1.749976 -0.000006 0.000030 -0.000007 0.000001 -0.000005 0.699957 -1.166615 -0.466629 0.000011 -0.000002 -0.000026 -2.338567 -0.252538 -0.551480 24.544580 -4.477401 -1.046991 0.000014 -0.000022 -10.744964 7.951860 4.550289 -0.932110 -0.000020 0.000080 -10.930833 -0.000020 -0.000001 0.000002 0.000003 -4.087266 -1.487641 0.000005 0.000002 -0.000002 2.338574 -0.252547 -0.551468 22.420917 -8.985777 -0.979022 -0.000001 -0.000044 -10.744902 10.629794 -0.531425 -2.118240 -0.000013 0.000007 -10.930879 0.000010 -0.000004 0.000003 -0.000013 -4.087243 -1.487651 -0.000000 -0.000000 -0.000002 
-0.000024 26.544897 40.017448 -15.774795 5.273680 -11.656514 -0.000022 0.900103 1.860690 32.958876 -5.310957 -1.530946 0.000011 0.400279 2.270336 -0.000005 -0.000002 0.000006 0.000013 0.200874 2.296526 0.000001 -0.000000 0.000003 0.000028 0.000002 2.305341 -0.000037 0.000002 -1.022528 -0.000013 -0.864471 6.051455 -1.850986 -2.028072 -180.468023 0.000016 -0.550438 3.121704 -0.000004 0.000000 -0.000006 -0.788273 -1.313740 4.256786 -125.453636 34.595209 -65.058850 -3.915105 0.000002 -0.000031 0.000002 -0.000003 0.000001 -6.914910 -0.000007 -0.000002 0.000026 0.000052 -41.078663 -6.096188 -0.000001 0.000015 -0.000098 -0.000059 -0.000087 -1.749908 -0.000030 0.000030 -0.000001 0.000001 0.000002 -0.699963 -1.166632 -0.466652 -0.000006 -0.000007 -0.000001 0.788261 -1.313778 4.256728 -124.649614 -31.797970 61.761528 3.915170 0.000013 -0.000034 -0.000000 0.000000 0.000003 6.914930 -0.000032 -0.000004 0.000032 -0.000051 46.522150 6.096224 0.000075 -0.000019 -0.000013 0.000044 0.000016 1.749971 -0.000006 0.000031 -0.000006 -0.000007 -0.000004 0.699958 -1.166616 -0.466629 0.000011 -0.000007 -0.000022 -2.338568 -0.252534 -0.551490 24.612295 -4.558483 -1.167536 0.000016 -0.000023 -10.744967 8.172799 5.075178 -1.004759 -0.000019 0.000079 -10.930838 -0.000022 -0.000001 0.000001 0.000003 -4.087268 -1.487640 0.000003 0.000001 -0.000004 2.338574 -0.252540 -0.551475 22.109418 -8.834781 -1.073284 -0.000003 -0.000047 -10.744904 10.778572 -0.535243 -2.169483 -0.000012 0.000006 -10.930878 0.000015 -0.000001 0.000002 -0.000014 -4.087243 -1.487654 0.000000 0.000001 -0.000002 
